<svg id="Capa_1" enable-background="new 0 0 512.097 512.097" height="512" viewBox="0 0 512.097 512.097" width="512" xmlns="http://www.w3.org/2000/svg"><g><circle cx="256.049" cy="256.049" fill="#fcf6cc" r="242.123"/><path d="m256.049 13.926v484.245c133.304 0 242.123-108.798 242.123-242.123-.001-133.303-108.798-242.122-242.123-242.122z" fill="#f7e4b3"/><path d="m399.049 234.379v88c0 24.63-20.04 44.67-44.67 44.67h-196.66c-24.63 0-44.67-20.04-44.67-44.67v-88c0-17.02 9.46-32.33 24.69-39.95l31.2-15.6c5-2.5 8.11-7.52 8.11-13.11 0-24.63 20.04-44.67 44.67-44.67h68.66c24.63 0 44.67 20.04 44.67 44.67 0 5.59 3.11 10.61 8.11 13.11l31.2 15.6c15.23 7.62 24.69 22.93 24.69 39.95z" fill="#0052be"/><path d="m374.359 194.429-31.2-15.6c-5-2.5-8.11-7.52-8.11-13.11 0-24.63-20.04-44.67-44.67-44.67h-34.33v246h98.33c24.63 0 44.67-20.04 44.67-44.67v-88c0-17.02-9.46-32.33-24.69-39.95z" fill="#002659"/><g fill="none"><path d="m86.069 107.279c-34.86 39.78-56.02 91.85-56.02 148.77 0 124.62 101.38 226 226 226v-204.79c-82.551-82.551-168.877-168.876-169.98-169.98z"/><path d="m404.819 426.029c-4.087-4.087-74.918-74.918-148.77-148.77v204.79c56.92 0 108.99-21.16 148.77-56.02z"/><path d="m256.049 234.839v-204.79c-56.92 0-108.99 21.16-148.77 56.02z"/><path d="m426.029 404.819c34.86-39.78 56.02-91.85 56.02-148.77 0-124.62-101.38-226-226-226v204.79z"/></g><circle cx="256.049" cy="256.049" fill="#d0cef1" r="47"/><path d="m256.049 209.049v94c25.92 0 47-21.08 47-47s-21.08-47-47-47z" fill="#a8aced"/><path d="m436.859 75.239c-100.189-100.21-261.127-100.39-361.51-.11-.04.04-.08.07-.12.1-.03.04-.06.08-.1.12-100.151 100.254-100.227 261.194.11 361.51 100.188 100.209 261.125 100.391 361.51.11.04-.04.08-.07.12-.1.03-.04.06-.08.1-.12 100.15-100.254 100.227-261.194-.11-361.51zm-180.81 406.81c-124.62 0-226-101.38-226-226 0-56.92 21.16-108.99 56.02-148.77 2.091 2.091 310.093 310.093 318.75 318.75-39.78 34.86-91.85 56.02-148.77 56.02zm169.98-77.23-318.75-318.75c39.78-34.86 91.85-56.02 148.77-56.02 124.62 0 226 101.38 226 226 0 56.92-21.16 108.99-56.02 148.77z" fill="#ff405c"/><path d="m436.859 75.239c-50.127-50.138-115.462-75.234-180.81-75.238v30.047c124.62 0 226 101.38 226 226 0 56.92-21.16 108.99-56.02 148.77l-169.98-169.98v42.42c73.852 73.852 144.683 144.683 148.77 148.77-39.78 34.86-91.85 56.02-148.77 56.02v30.047c65.263.003 130.541-25.02 180.7-75.127.04-.04.08-.07.12-.1.03-.04.06-.08.1-.12 100.151-100.253 100.227-261.193-.11-361.509z" fill="#c30047"/></g></svg>